<svg width="262" height="149" viewBox="0 0 262 149" fill="none" xmlns="http://www.w3.org/2000/svg">
<path d="M56 21C56 9.9543 64.9543 1 76 1H153C164.046 1 173 9.9543 173 21V149H56V21Z" fill="#04052E"/>
<path d="M229.628 50.299C221.94 57.44 209.918 56.9959 202.777 49.3071L193.93 39.7817C186.789 32.0928 187.233 20.0709 194.922 12.9299C202.611 5.78892 214.633 6.23301 221.774 13.9218L230.62 23.4473C237.761 31.1361 237.317 43.158 229.628 50.299Z" fill="#B481CA"/>
<path d="M17.7553 95.2972C7.94934 92.1014 2.5907 81.5613 5.78648 71.7553C8.98227 61.9493 19.5223 56.5907 29.3283 59.7865L29.9473 59.9882C39.7533 63.184 45.112 73.7241 41.9162 83.5301C38.7204 93.3361 28.1804 98.6947 18.3744 95.4989L17.7553 95.2972Z" fill="#FFBF59"/>
<path d="M137 125.5C137 90.9822 164.982 63 199.5 63C234.018 63 262 90.9822 262 125.5V149H137V125.5Z" fill="#0D00A4"/>
<circle cx="88.5" cy="49.5" r="12.5" fill="white"/>
<circle cx="85" cy="53" r="9" fill="#0D00A4"/>
<circle cx="128.5" cy="53.5" r="8.5" fill="white"/>
<circle cx="126.5" cy="55.5" r="6.5" fill="#0D00A4"/>
</svg>
